<svg width="35" height="35" viewBox="0 0 48 48" fill="none" xmlns="http://www.w3.org/2000/svg">
<g id="perm_phone_msg_24px">
<path id="icon/action/perm_phone_msg_24px" fill-rule="evenodd" clip-rule="evenodd" d="M40 31C37.5 31 35.1 30.6 32.86 29.86C32.66 29.8 32.44 29.76 32.24 29.76C31.72 29.76 31.22 29.96 30.82 30.34L26.42 34.74C20.76 31.86 16.12 27.24 13.24 21.58L17.64 17.16C18.2 16.62 18.36 15.84 18.14 15.14C17.4 12.9 17 10.5 17 8C17 6.9 16.1 6 15 6H8C6.9 6 6 6.9 6 8C6 26.78 21.22 42 40 42C41.1 42 42 41.1 42 40V33C42 31.9 41.1 31 40 31ZM10.06 10H13.06C13.2 11.76 13.5 13.5 13.98 15.18L11.58 17.6C10.76 15.18 10.24 12.64 10.06 10ZM30.4 36.42C32.8 37.24 35.36 37.76 38 37.94V34.92C36.24 34.8 34.5 34.5 32.8 34.02L30.4 36.42ZM24 6V26L30 20H42V6H24ZM28 16H38V10H28V16Z" fill="#333333"/>
</g>
</svg>
