<svg width="90" height="88" viewBox="0 0 90 88" fill="none" xmlns="http://www.w3.org/2000/svg">
<path fill-rule="evenodd" clip-rule="evenodd" d="M56.1188 52.2683H59.0813L77.7938 70.6017L72.2063 76.065L53.4563 57.7683V54.8717L52.4438 53.845C48.1688 57.4383 42.6188 59.6017 36.5813 59.6017C23.1188 59.6017 12.2063 48.9317 12.2063 35.7683C12.2063 22.605 23.1188 11.935 36.5813 11.935C50.0438 11.935 60.9563 22.605 60.9563 35.7683C60.9563 41.6717 58.7438 47.0983 55.0688 51.2783L56.1188 52.2683ZM19.7063 35.7683C19.7063 44.8983 27.2438 52.2683 36.5813 52.2683C45.9188 52.2683 53.4563 44.8983 53.4563 35.7683C53.4563 26.6383 45.9188 19.2683 36.5813 19.2683C27.2438 19.2683 19.7063 26.6383 19.7063 35.7683Z" fill="black" fill-opacity="0.54"/>
</svg>
