<svg width="30" height="30" viewBox="0 0 30 30" fill="none" xmlns="http://www.w3.org/2000/svg">
<g id="alert/error_outline_24px">
<path id="icon/outlined/alert/error_outline_24px" fill-rule="evenodd" clip-rule="evenodd" d="M14.9874 2.5C8.08744 2.5 2.49994 8.1 2.49994 15C2.49994 21.9 8.08744 27.5 14.9874 27.5C21.8999 27.5 27.4999 21.9 27.4999 15C27.4999 8.1 21.8999 2.5 14.9874 2.5ZM16.2499 8.74999H13.7499V16.25H16.2499V8.74999ZM16.2499 18.75H13.7499V21.25H16.2499V18.75ZM4.99991 15C4.99991 20.525 9.4749 25 14.9999 25C20.5249 25 24.9999 20.525 24.9999 15C24.9999 9.47498 20.5249 4.99998 14.9999 4.99998C9.4749 4.99998 4.99991 9.47498 4.99991 15Z" fill="#333333"/>
</g>
</svg>
