<svg width="30" height="30" viewBox="0 0 30 30" fill="none" xmlns="http://www.w3.org/2000/svg">
<g id="add_shopping_cart_24px">
<path id="icon/action/add_shopping_cart_24px" fill-rule="evenodd" clip-rule="evenodd" d="M17.4 11.875H14.9V8.125H11.15V5.625H14.9V1.875H17.4V5.625H21.15V8.125H17.4V11.875ZM7.41253 25.625C7.41253 24.25 8.52503 23.125 9.90003 23.125C11.275 23.125 12.4 24.25 12.4 25.625C12.4 27 11.275 28.125 9.90003 28.125C8.52503 28.125 7.41253 27 7.41253 25.625ZM22.4 23.125C21.025 23.125 19.9125 24.25 19.9125 25.625C19.9125 27 21.025 28.125 22.4 28.125C23.775 28.125 24.9 27 24.9 25.625C24.9 24.25 23.775 23.125 22.4 23.125ZM20.5875 16.875H11.275L9.90002 19.375H24.9V21.875H9.90002C8.00002 21.875 6.80002 19.8375 7.71252 18.1625L9.40002 15.1125L4.90002 5.62496H2.40002V3.12496H6.48752L11.8125 14.375H20.5875L25.425 5.62496L27.6 6.82496L22.775 15.5875C22.35 16.3625 21.525 16.875 20.5875 16.875Z" fill="#F2F2F2"/>
</g>
</svg>
